<svg width="15" height="27" viewBox="0 0 15 27" fill="none" xmlns="http://www.w3.org/2000/svg">
<path d="M14.137 23.5547C14.454 23.8717 14.6321 24.3017 14.6321 24.75C14.6321 25.1983 14.454 25.6283 14.137 25.9453C13.8199 26.2623 13.39 26.4404 12.9416 26.4404C12.4933 26.4404 12.0633 26.2623 11.7463 25.9453L0.49633 14.6953C0.33901 14.5385 0.214186 14.3522 0.129014 14.1471C0.0438427 13.942 0 13.7221 0 13.5C0 13.2779 0.0438427 13.058 0.129014 12.8529C0.214186 12.6477 0.33901 12.4615 0.49633 12.3047L11.7463 1.05468C12.0633 0.737668 12.4933 0.55957 12.9416 0.55957C13.39 0.55957 13.8199 0.737669 14.137 1.05469C14.454 1.3717 14.6321 1.80167 14.6321 2.25C14.6321 2.69833 14.454 3.12829 14.137 3.44531L4.08367 13.4986L14.137 23.5547Z" fill="black"/>
</svg>
