<svg width="46" height="37" viewBox="0 0 46 37" fill="none" xmlns="http://www.w3.org/2000/svg">
<rect width="46" height="36.4821" rx="18.2411" fill="#ECBB60"/>
<path d="M29.0194 18.138C29.1862 18.0689 29.3377 17.9676 29.4652 17.8399C29.5929 17.7123 29.6942 17.5609 29.7633 17.3941C29.8324 17.2274 29.868 17.0487 29.868 16.8682C29.868 16.6877 29.8324 16.509 29.7633 16.3422C29.6942 16.1755 29.5929 16.024 29.4652 15.8965L23.9715 10.4028C23.844 10.2751 23.6925 10.1738 23.5258 10.1047C23.359 10.0356 23.1803 10 22.9998 10C22.8193 10 22.6406 10.0356 22.4739 10.1047C22.3072 10.1738 22.1557 10.2751 22.0281 10.4028L16.5344 15.8965C16.2767 16.1542 16.132 16.5037 16.132 16.8682C16.132 17.2326 16.2767 17.5822 16.5344 17.8399C16.7922 18.0976 17.1417 18.2424 17.5061 18.2424C17.8706 18.2424 18.2201 18.0976 18.4778 17.8399L21.6264 14.6896V25.1087C21.6264 25.473 21.7711 25.8223 22.0287 26.0799C22.2862 26.3374 22.6356 26.4821 22.9998 26.4821C23.3641 26.4821 23.7134 26.3374 23.971 26.0799C24.2285 25.8223 24.3732 25.473 24.3732 25.1087V14.6896L27.5218 17.8399C27.6494 17.9676 27.8008 18.0689 27.9676 18.138C28.1343 18.2071 28.313 18.2427 28.4935 18.2427C28.674 18.2427 28.8527 18.2071 29.0194 18.138Z" fill="white"/>
</svg>
